<svg xmlns="http://www.w3.org/2000/svg" width="24" height="24" fill="none" viewBox="0 0 24 24">
    <circle cx="11.5" cy="11.5" r="5.5" fill="#fff"/>
    <path fill="#fee600" d="M11.467 19.934c4.623 0 8.467-3.835 8.467-8.467C19.934 6.843 16.082 3 11.458 3 6.828 3 3 6.843 3 11.467c0 4.632 3.835 8.467 8.467 8.467zm-2.98-4.782c-.39 0-.706-.315-.706-.705 0-.191.083-.357.216-.482l2.474-2.49-2.474-2.49c-.133-.116-.216-.29-.216-.482 0-.381.316-.689.706-.689.19 0 .357.075.481.208l2.49 2.482 2.507-2.49c.141-.15.29-.216.473-.216.39 0 .706.315.706.697 0 .191-.066.349-.207.482l-2.49 2.498 2.481 2.474c.125.133.208.299.208.498 0 .39-.316.705-.706.705-.199 0-.365-.083-.49-.207l-2.481-2.49-2.474 2.49c-.125.133-.307.207-.498.207z"/>
</svg>
