<svg width="512" height="512" viewBox="0 0 512 512" fill="none" xmlns="http://www.w3.org/2000/svg">
<path fill-rule="evenodd" clip-rule="evenodd" d="M0 75C0 33.5786 33.5786 0 75 0H437C478.421 0 512 33.5786 512 75V437C512 478.421 478.421 512 437 512H75C33.5786 512 0 478.421 0 437V75ZM100.764 153.716C145.231 191.375 223.258 257.629 246.191 278.288C249.27 281.076 252.572 282.493 256 282.493C259.421 282.493 262.717 281.089 265.789 278.314C288.742 257.636 366.769 191.375 411.237 153.716C414.006 151.376 414.428 147.262 412.186 144.402C407.005 137.791 399.28 134 391 134H121C112.721 134 104.995 137.791 99.8143 144.402C97.5729 147.262 97.995 151.376 100.764 153.716ZM406.887 175.1C408.877 173.399 411.692 173.011 414.085 174.124C416.47 175.226 418 177.618 418 180.248V350C418 364.891 405.891 377 391 377H121C106.109 377 94 364.891 94 350V180.248C94 177.618 95.5295 175.232 97.9152 174.124C100.288 173.023 103.109 173.399 105.113 175.1C145.369 209.219 216.047 269.303 237.154 288.321C248.294 298.366 263.718 298.366 274.833 288.334C294.634 270.49 357.573 216.905 406.887 175.1Z" fill="white"/>
</svg>
