<svg width="48" height="32" viewBox="0 0 48 32" fill="none" xmlns="http://www.w3.org/2000/svg">
<rect x="0.2" y="0.2" width="47.6" height="31.6" rx="2.8" fill="white" stroke="#E8E8E8" stroke-width="0.4"/>
<path d="M19.4019 23.7692C23.4898 23.7692 26.8038 20.463 26.8038 16.3846C26.8038 12.3062 23.4898 9 19.4019 9C15.3139 9 12 12.3062 12 16.3846C12 20.463 15.3139 23.7692 19.4019 23.7692Z" fill="#EE0005"/>
<path d="M28.5982 23.7692C32.6861 23.7692 36 20.463 36 16.3846C36 12.3062 32.6861 9 28.5982 9C24.5102 9 21.1963 12.3062 21.1963 16.3846C21.1963 20.463 24.5102 23.7692 28.5982 23.7692Z" fill="#F9A000"/>
<path d="M21.1963 16.3845C21.1963 18.7293 22.2919 20.8186 24 22.1713C25.708 20.8186 26.8037 18.7293 26.8037 16.3845C26.8037 14.0398 25.7081 11.9505 24 10.5978C22.2919 11.9506 21.1963 14.0398 21.1963 16.3845Z" fill="#FF6300"/>
</svg>
