<svg width="50" height="34" viewBox="0 0 50 34" fill="none" xmlns="http://www.w3.org/2000/svg">
<path d="M45.8584 33H4.14161C2.40658 33 1 31.5528 1 29.7677V4.23231C1 2.4472 2.40658 1 4.14161 1H45.8584C47.5934 1 49 2.4472 49 4.23231V29.7677C49 31.5528 47.5934 33 45.8584 33Z" fill="white"/>
<path d="M16.9631 17.9869C16.9737 18.0437 16.988 18.0998 17.0337 18.1678C17.8254 16.168 18.6169 14.1686 19.4073 12.1719C20.2111 12.1719 21.0064 12.1719 21.8209 12.1719C21.7774 12.2823 21.7411 12.3794 21.7009 12.4752C20.5211 15.2913 19.34 18.1073 18.1627 20.9246C18.1176 21.032 18.0639 21.0728 17.9435 21.072C17.2305 21.0656 16.5171 21.0669 15.804 21.0712C15.6965 21.0722 15.651 21.0456 15.6223 20.9337C15.0266 18.6148 14.4207 16.2983 13.8306 13.9784" fill="#0052CC"/>
<path d="M13.8304 13.9771C13.7245 13.5608 13.5154 13.2731 13.1183 13.0963C12.4641 12.8053 11.7842 12.6026 11.0896 12.4406C11.0592 12.4333 11.0298 12.4213 11 12.4117C11 12.3903 11 12.3694 11 12.3481C11.0214 12.1731 11.1316 12.1571 11.2852 12.1579C12.495 12.1643 13.705 12.1616 14.915 12.1618C15.5158 12.1618 15.9279 12.4966 16.0399 13.0872C16.3495 14.7196 16.6556 16.3527 16.963 17.9856" fill="#FFC601"/>
<path d="M30.0875 12C30.3462 12.0425 30.6065 12.0758 30.8624 12.1309C31.1143 12.1853 31.3623 12.2604 31.6112 12.3293C31.6713 12.346 31.7284 12.3733 31.7989 12.4005C31.6654 13.0231 31.5335 13.6399 31.4014 14.2567C31.0983 14.1611 30.8085 14.0524 30.5094 13.9796C29.9715 13.849 29.4224 13.7929 28.8805 13.9387C28.6846 13.9915 28.4875 14.1019 28.3341 14.2358C28.0742 14.4624 28.0739 14.7937 28.3247 15.0303C28.4956 15.1915 28.696 15.3262 28.8989 15.4464C29.3029 15.6852 29.7273 15.89 30.1258 16.1374C30.6617 16.4701 31.1077 16.8945 31.2864 17.5272C31.546 18.4464 31.2624 19.6716 30.2389 20.4105C29.6499 20.8354 28.9835 21.0579 28.2742 21.1489C27.1583 21.2922 26.0631 21.1826 24.9966 20.8165C24.9373 20.7963 24.8801 20.7696 24.8047 20.7389C24.9426 20.0925 25.0791 19.451 25.2193 18.7949C25.3096 18.8339 25.3871 18.8651 25.4622 18.9009C26.122 19.2139 26.8178 19.3637 27.5469 19.3553C27.8815 19.3514 28.2093 19.2998 28.5112 19.1402C29.0626 18.8491 29.1355 18.2838 28.6497 17.8994C28.4122 17.711 28.1391 17.563 27.8685 17.4222C27.4182 17.1878 26.9728 16.9503 26.5812 16.621C25.4641 15.6827 25.6068 14.3709 26.2113 13.4882C26.7088 12.7626 27.4401 12.3786 28.2714 12.1686C28.5362 12.1014 28.8114 12.0767 29.0812 12.0313C29.1214 12.0245 29.1602 12.0106 29.1998 12C29.4956 12 29.7917 12 30.0875 12Z" fill="#0052CC"/>
<path d="M39.5201 21.0595C38.7988 21.0595 38.1077 21.0595 37.398 21.0595C37.331 20.7425 37.2614 20.4254 37.1967 20.1071C37.1213 19.7335 37.1231 19.7333 36.7361 19.7333C35.928 19.7333 35.12 19.7354 34.3115 19.731C34.1989 19.7304 34.1441 19.7628 34.1072 19.8725C33.9856 20.2319 33.8554 20.5886 33.72 20.9433C33.7009 20.9932 33.6335 21.0595 33.5878 21.0601C32.8223 21.0672 32.0568 21.0651 31.2744 21.0651C31.2942 21.0094 31.3069 20.9652 31.3246 20.9231C32.4502 18.2341 33.5765 15.5449 34.7034 12.8559C34.8943 12.4001 35.2475 12.1651 35.7379 12.1644C36.3714 12.1638 37.0049 12.1642 37.6617 12.1642C38.2804 15.1256 38.8984 18.0836 39.5201 21.0595ZM36.7383 17.9165C36.5059 16.8035 36.2787 15.7126 36.0512 14.6222C36.0393 14.6206 36.0276 14.6191 36.0157 14.6174C35.6196 15.7111 35.2237 16.8044 34.8206 17.9165C35.4703 17.9165 36.0859 17.9165 36.7383 17.9165Z" fill="#0052CC"/>
<path d="M20.9155 21.0684C21.554 18.0863 22.1872 15.1281 22.8203 12.1719C23.5905 12.1719 24.3446 12.1719 25.1179 12.1719C25.0565 12.4659 24.9985 12.7489 24.9384 13.0314C24.3807 15.6406 23.8209 18.2493 23.2689 20.8599C23.2336 21.027 23.1739 21.0759 23.0034 21.0728C22.3749 21.0612 21.7462 21.0684 21.1174 21.0684C21.0598 21.0684 21.0024 21.0684 20.9155 21.0684Z" fill="#0052CC"/>
<path d="M45.8584 33H4.14161C2.40658 33 1 31.5528 1 29.7677V4.23231C1 2.4472 2.40658 1 4.14161 1H45.8584C47.5934 1 49 2.4472 49 4.23231V29.7677C49 31.5528 47.5934 33 45.8584 33Z" stroke="#E8E8E8" stroke-width="0.4" stroke-miterlimit="10" stroke-linecap="round" stroke-linejoin="round"/>
</svg>
