<svg xmlns="http://www.w3.org/2000/svg" width="16" height="15" fill="none" viewBox="0 0 16 15">
    <path fill="#0b41a8" fill-rule="evenodd" d="M8.233 12.122c-.146-.076-.32-.076-.466 0l-3.573 1.879c-.366.193-.795-.119-.725-.527l.682-3.979c.028-.162-.026-.328-.143-.442L1.117 6.235c-.297-.29-.133-.793.277-.853l3.995-.58c.163-.024.303-.126.376-.274L7.552.908c.183-.371.713-.371.896 0l1.787 3.62c.073.148.213.25.376.274l3.995.58c.41.06.574.564.277.853l-2.89 2.818c-.118.114-.172.28-.144.442l.682 3.979c.07.408-.359.72-.726.527l-3.572-1.879z" clip-rule="evenodd"/>
</svg>
